PathFileType	4	(X/Y/Z)	..\data\SUBJ01\dynamic\walk.trc
DataRate	CameraRate	NumFrames	NumMarkers	Units	OrigDataRate	OrigDataStartFrame	OrigNumFrames
100.000000	100.000000	4	21	mm	100.000000	79	337
Frame#	Time	C7			T10			CLAV			STRN			LSHO			RSHO			LASI			RASI			SACR			LTHI			LKNE			LTIB			LANK			LHEE			LTOE			RTHI			RKNE			RTIB			RANK			RHEE			RTOE			
		X1	Y1	Z1	X2	Y2	Z2	X3	Y3	Z3	X4	Y4	Z4	X5	Y5	Z5	X6	Y6	Z6	X7	Y7	Z7	X8	Y8	Z8	X9	Y9	Z9	X10	Y10	Z10	X11	Y11	Z11	X12	Y12	Z12	X13	Y13	Z13	X14	Y14	Z14	X15	Y15	Z15	X16	Y16	Z16	X17	Y17	Z17	X18	Y18	Z18	X19	Y19	Z19	X20	Y20	Z20	X21	Y21	Z21	

80	1.74	736.1355590820314	1358.653076171875	22.04595035062721	674.6090698242189	1135.906005859375	22.04595035062721	885.1172485351565	1262.718994140625	21.95847742216747	947.077575683594	1107.350341796875	22.04595035062721	786.067077636719	1324.85009765625	-152.0801736032232	819.058044433594	1290.58935546875	192.0803046712631	871.8367919921877	865.7441406250002	-120.859251464656	873.3911743164065	876.4206542968752	160.859251464656	694.4749755859376	876.4204711914065	20	865.268493652344	598.9069213867189	-196.594804781495	927.170104980469	441.9452514648439	-109.6938565403288	763.0208740234376	295.9686584472657	-159.4973066312762	674.0280151367189	196.9087371826172	-111.7562165806763	626.0283203125001	233.6867218017579	-65.58032746445977	724.0252685546876	101.0693588256836	-74.43897087404167	854.8025512695315	584.3883666992189	213.5914694104505	877.1531372070315	412.2526245117189	149.1302321308147	853.721618652344	176.8216552734375	196.2680469139518	820.476013183594	60.62612915039064	152.8880051473318	765.0186767578126	55.59705352783205	105.7255595369172	931.4509887695315	43.27433776855469	114.6938823150058	
81	1.75	746.5001220703126	1359.780883789063	22.04595035062721	685.0476684570314	1136.945190429688	22.04595035062721	895.4860839843752	1263.894409179688	21.95847742216747	957.5067138671877	1108.569580078125	22.04595035062721	795.3818359375002	1325.483032226563	-152.0801736032232	830.0977783203127	1292.513549804688	192.0803046712631	883.3007812500002	867.1916503906252	-120.859251464656	882.8552246093752	877.3830566406252	160.859251464656	704.9058227539064	877.4844360351565	20	882.9313964843752	601.3796997070314	-196.594804781495	946.9259033203127	445.616424560547	-109.6938565403288	788.792663574219	292.5234680175782	-159.4973066312762	703.3501586914064	190.1148681640625	-111.7562165806763	652.8785400390626	224.4948120117188	-65.58032746445977	758.5648193359376	97.994499206543	-74.43897087404167	860.4346313476565	584.7664794921876	213.5914694104505	879.384460449219	412.063446044922	149.1302321308147	854.0330200195315	176.6737518310547	196.2680469139518	820.490661621094	60.65881347656251	152.8880051473318	765.1953125000001	55.80931854248048	105.7255595369172	931.5411376953127	43.16563034057618	114.6938823150058	
82	1.76	756.8590087890626	1360.715942382813	22.04595035062721	695.4952392578126	1137.800170898438	22.04595035062721	905.8542480468752	1264.89599609375	21.95847742216747	967.9458007812502	1109.6103515625	22.04595035062721	804.7269287109377	1325.988037109375	-152.0801736032232	841.0698852539065	1294.219360351563	192.0803046712631	894.7595214843752	868.406921386719	-120.859251464656	892.3052978515627	878.173522949219	160.859251464656	715.3369750976564	878.3958129882815	20	900.143493652344	603.8017578125001	-196.594804781495	965.9404907226565	448.9852294921876	-109.6938565403288	814.5681152343752	288.3424682617188	-159.4973066312762	733.2342529296876	182.4282531738282	-111.7562165806763	680.3811645507814	214.1238861083985	-65.58032746445977	793.7780761718752	94.48258209228517	-74.43897087404167	866.1083984375002	585.1110839843751	213.5914694104505	881.6655883789065	411.8826904296876	149.1302321308147	854.3784179687502	176.5483093261719	196.2680469139518	820.5267333984377	60.71453094482423	152.8880051473318	765.3829956054689	56.03702926635744	105.7255595369172	931.6277465820315	43.04790115356446	114.6938823150058	
83	1.77	767.2224121093751	1361.44775390625	22.04595035062721	705.9556884765626	1138.461669921875	22.04595035062721	916.2282714843752	1265.708129882813	21.95847742216747	978.3972167968752	1110.455322265625	22.04595035062721	814.124938964844	1326.354858398438	-152.0801736032232	851.9692382812502	1295.6767578125	192.0803046712631	906.1903076171877	869.3680419921877	-120.859251464656	901.7604980468752	878.7750244140627	160.859251464656	725.7708740234376	879.1458129882815	20	916.822692871094	606.0983886718751	-196.594804781495	984.1660766601565	451.9901428222657	-109.6938565403288	840.3541259765627	283.4992065429688	-159.4973066312762	763.7349243164064	173.9865264892578	-111.7562165806763	708.6394042968751	202.7044677734376	-65.58032746445977	829.6182250976565	90.66867065429689	-74.43897087404167	871.842468261719	585.4045410156251	213.5914694104505	883.9960937500002	411.685516357422	149.1302321308147	854.7776489257815	176.4383392333985	196.2680469139518	820.587829589844	60.79541015625001	152.8880051473318	765.5750732421876	56.28470611572267	105.7255595369172	931.706237792969	42.91442871093751	114.6938823150058	
